<svg width="200" height="200" viewBox="0 0 200 200" fill="none" xmlns="http://www.w3.org/2000/svg">
  <!-- Gradient background circle -->
  <defs>
    <linearGradient id="grad1" x1="0%" y1="0%" x2="100%" y2="100%">
      <stop offset="0%" style="stop-color:#3b82f6;stop-opacity:1" />
      <stop offset="100%" style="stop-color:#8b5cf6;stop-opacity:1" />
    </linearGradient>
  </defs>

  <!-- Background circle -->
  <circle cx="100" cy="100" r="90" fill="url(#grad1)"/>

  <!-- Shopping bag icon -->
  <path d="M70 80 L130 80 L125 140 C125 145 120 150 115 150 L85 150 C80 150 75 145 75 140 Z"
        fill="white" stroke="white" stroke-width="3" stroke-linejoin="round"/>

  <!-- Bag handle left -->
  <path d="M75 80 C75 65 85 55 100 55 C115 55 125 65 125 80"
        fill="none" stroke="white" stroke-width="3" stroke-linecap="round"/>

  <!-- AI sparkles -->
  <circle cx="85" cy="65" r="3" fill="#fbbf24"/>
  <circle cx="115" cy="65" r="3" fill="#fbbf24"/>
  <circle cx="100" cy="50" r="4" fill="#fbbf24"/>

  <!-- Data lines inside bag -->
  <line x1="85" y1="100" x2="115" y2="100" stroke="#3b82f6" stroke-width="2"/>
  <line x1="85" y1="110" x2="110" y2="110" stroke="#3b82f6" stroke-width="2"/>
  <line x1="85" y1="120" x2="105" y2="120" stroke="#3b82f6" stroke-width="2"/>
</svg>
